Patient4_TMGait_0pt2_03_right_20_EMG.mot
version=1
nRows=29
nColumns=33
inDegrees=no
endheader
time	1LAddLong	2LGlutMax	3LGlutMed	4LIliopsoas	5LSemiMemb	6LBicFemLong	7LRecFem	8LVastMed	9LVastLat	10LGasMed	11LTibAnt	12lTibPost	13LPeroneusLong	14LSol	15LExtDigLong	16LFlexDigLong	17RAddLong	18RGlutMax	19RGlutMed	20RIliopsoas	21RSemiMemb	22RBicFemLong	23RRecFem	24RVastMed	25RVastLat	26RGasMed	27RTibAnt	28RTibPost	29RPeroneusLong	30RSol	31RExtDigLong	32RFlexDigLong
44.4	0.005646	0.033875	-0.077667	0.00824	-0.02533	-0.00824	0.029907	0.004578	0.11154	0.027313	0.037384	-0.006256	0.012207	-0.012054	0.026398	-0.016479	-0.022888	-0.024872	-0.24292	0.043945	-0.052948	0.013275	-0.044556	0.001526	0.00885	-0.001984	0.094452	-0.004425	0.31281	-0.14145	-0.000458	-0.017395
44.401	0.002899	0.024109	-0.11566	0.006409	-0.023499	0.005646	-0.030975	0.002136	0.13016	0.046234	-0.004578	0.003967	0.017242	-0.024567	0.017853	-0.019684	0	-0.063171	-0.25253	0.007172	0.011902	-0.083618	0.055695	-0.039215	-0.000305	-0.002441	0.075684	0.005646	0.41641	-0.001221	0.005188	-0.020142
44.402	-0.014343	0.024719	-0.11551	0.011292	-0.004883	0.024567	0.037842	0.003052	0.050507	0.031433	-0.030975	-0.016022	0.012817	-0.032196	0.010681	-0.025177	0.033875	0.003662	0.45761	-0.037994	0.23377	-0.27985	0.034943	-0.081482	0.12116	-0.014496	0.076904	-0.005188	0.31021	0.22125	-0.000458	-0.023041
44.403	-0.084534	0.058441	0.045624	0.001373	-0.032196	0.002441	0.019989	-0.000916	-0.014038	0.018158	0.000305	-0.00824	0.006866	-0.013123	0.014954	-0.015106	0.04364	-0.004425	0.6105	-0.14511	0.2533	-0.17517	-0.050659	-0.085297	0.5632	-0.025635	0.095825	-0.004578	0.177	0.29572	-0.001678	-0.016022
44.404	-0.059052	0.015564	0.005798	0.005188	-0.072021	-0.010223	-0.023193	-0.001984	-0.016479	0.00473	0.01297	-0.011139	0.00061	-0.026398	0.019226	-0.022583	0.029755	-0.024109	-0.21408	-0.14679	-0.040131	0.087585	-0.058594	-0.042572	0.54489	-0.024872	0.11139	-0.003662	0.11307	0.24612	-0.002899	-0.016479
44.405	-0.042267	0.058746	0.014801	0.029907	-0.055084	-0.010223	0.013275	0.007629	-0.032196	-0.017242	0.014038	-0.013123	0.023651	-0.008392	0.015411	-0.029907	-0.023804	-0.012817	-0.14053	-0.11047	-0.19775	0.17853	-0.15915	0.017853	0.34225	-0.024261	0.097351	-0.010986	0.059509	0.36118	-0.001068	-0.01358
44.406	-0.006866	0.036011	0.045929	0.014038	-0.02655	-0.022888	0.013733	0.011597	-0.037689	-0.033569	0.006409	-0.010376	0.04715	-0.029907	0.010834	-0.023804	-0.052948	-0.010223	0.19714	-0.028534	0.026398	0.084534	-0.16586	0.015259	0.013275	-0.016785	0.10468	-0.011902	0.012817	0.57816	-0.00061	-0.005188
44.407	-0.001373	0.013733	0.063019	0.002899	-0.041504	-0.053711	0.032196	0.002289	-0.02243	-0.014954	0.00473	-0.013428	0.037994	-0.039063	0.011597	-0.014038	-0.032959	-0.032501	0.041809	0.083618	0.19806	-0.001068	-0.27222	0.030212	-0.32425	0.000916	0.14114	-0.008545	-0.042267	0.50339	-0.00061	-0.009003
44.408	0.017395	0.016632	0.034332	-0.007172	-0.009308	-0.05249	0.035706	0.005341	-0.023499	0.004883	-0.001984	-0.014038	0.045471	-0.033264	0.007172	-0.020905	0.009766	-0.098724	-0.19989	0.19898	0.16525	0.00412	-0.2211	-0.000458	-0.6282	0.013123	0.11444	-0.012054	-0.13763	0.11887	0.009918	-0.015259
44.409	0.022278	0.004883	0.03006	-0.002899	0.079346	-0.019073	0.022736	0.007172	-0.00885	0.022583	0.00885	-0.008392	0.036469	-0.023956	0.016327	-0.019684	-0.010529	-0.056	0.07843	0.11993	0.066986	0.0914	0.083008	0.001373	-0.63934	0.012207	0.074615	-0.014038	-0.093079	-0.38086	0.001068	-0.005951
44.41	0.018768	0.001678	0.007935	-0.002747	0.059662	0.015717	0.002899	-0.001831	-0.010986	-0.038452	0.013733	-0.015717	0.028992	-0.026093	0.011902	-0.013733	-0.019531	-0.024414	0.14038	0.10117	-0.16037	0.14984	0.16373	0.010529	-0.3363	0.011444	0.059052	-0.017853	-0.11169	-0.55618	0.001373	-0.010681
44.411	0.001068	0.025787	0.005035	-0.006409	-0.007935	0.011444	0.016632	-0.003662	-0.001221	-0.026398	0.020142	-0.006561	0.067139	-0.024414	0.004883	-0.014496	0.001984	0.006256	-0.046692	0.087738	-0.13794	0.01297	0.058899	-0.002136	-0.16113	0.018158	0.075073	-0.011597	-0.28488	-0.52216	-0.00061	-0.010834
44.412	0.009003	0.041504	-0.08728	-0.013885	0.007019	-0.014954	-0.001068	0.000458	0.019379	-0.090942	0.01236	-0.010986	0.071411	-0.02655	0.013885	-0.024567	-0.001068	-0.063477	-0.031586	0.036163	0.20935	-0.011139	-0.093079	-0.070648	-0.12375	0.018005	0.10223	-0.016327	-0.35553	-0.44861	0.001373	-0.019226
44.413	0.004578	0.0737	-0.084839	0.029602	0.056152	0.00061	-0.00824	0.000305	0.056763	-0.098114	0.018768	-0.005646	-0.015564	-0.012207	0.005951	-0.015106	-0.018005	-0.05722	-0.20706	0.045471	0.24292	0.011749	-0.1239	0.050659	-0.034027	0.012665	0.13733	-0.016632	-0.2652	-0.24796	0.000916	-0.011444
44.414	0.009766	0.088806	0.069885	0.033875	0.055542	0.006714	0.028687	-0.002441	0.077362	-0.06897	0.014343	0.000916	-0.10483	0.004272	-0.000458	-0.063171	-0.047455	-0.016632	-0.39291	0.057373	-0.00885	0.077362	-0.047302	0.09079	-0.013733	-0.00412	0.11215	-0.01236	0.005188	-0.16098	0.001221	-0.024261
44.415	0.011749	0.092163	0.13336	0.019836	0.046997	-0.003967	0.043945	-0.001831	0.067596	-0.11826	0.001678	-0.007324	-0.075073	-0.021057	0.010681	-1.2642	-0.016327	-0.02655	-0.13489	0.044556	-0.040588	0.10788	0.011902	0.028839	-0.053558	-0.037384	0.076294	-0.019379	0.034485	-0.11093	0.000916	-0.025635
44.416	0.002289	0.080261	0.11032	0.012665	0.02655	0.00351	0.1149	0.002899	-0.019684	-0.11719	0.000305	-0.001831	-0.04715	-0.019531	0.008087	0.92651	0.00351	-0.028992	-0.032501	0.000458	0.026245	0.027924	-0.077362	-0.019226	-0.041656	-0.066376	0.057068	-0.016479	-0.079041	-0.08606	0.001373	-0.025482
44.417	-0.001373	0.062408	0.016479	0.007629	-0.003662	-0.02533	0.13107	0.007019	-0.075989	-0.085602	0.005341	-0.003052	0.007019	-0.017548	-0.001678	0.40359	0.011597	-0.042419	0.072327	-0.037231	0.073547	0.057068	-0.23941	-0.008392	0.02594	-0.0354	0.067139	-0.013428	-0.14389	0.21515	0.001373	-0.019379
44.418	-0.010376	0.056458	-0.014648	0.000916	-0.030975	-0.018158	0.088043	-0.003052	-0.041962	0.032349	-0.005493	0.001678	0.047302	-0.025635	-0.003052	0.058441	0.019379	-0.021973	-0.042419	-0.027771	0.075684	0.068665	-0.061188	-0.010681	-0.044556	-0.006409	0.031281	-0.012512	0.043182	0.55588	-0.003357	-0.017242
44.419	-0.007172	0.067139	0.007477	0.003204	-0.056	0.00351	-0.008392	0.007019	-0.025177	0.09613	0.00946	0.005798	0.094452	-0.0177	-0.01236	0.56122	0.019531	-0.096436	-0.27924	-0.012512	-0.14984	0.13321	0.008698	-0.001678	-0.056763	0.009003	-0.005798	-0.002899	0.14374	0.46417	-0.000305	-0.010529
44.42	-0.002899	0.10391	0.053253	0.008087	-0.084381	0.005493	-0.058136	0.007782	-0.024414	0.067596	-0.005035	0.00351	0.10101	-0.059967	-0.018616	0.06485	0.000305	-0.069275	-0.00473	-0.012512	-0.13107	0.084076	-0.006714	-0.030365	0.13382	-0.006104	-0.009766	-0.002441	0.17059	0.35019	-0.00061	-0.006409
44.421	-0.01236	0.10056	0.070343	0.009918	-0.087128	0.024414	-0.047607	0.003815	0.027924	0.053864	0.006714	0.008392	0.073547	-0.027313	-0.000916	-0.078735	-0.011597	0.037689	0.06546	-0.072632	-0.022736	0.056152	-0.1535	-0.026398	0.43335	-0.022736	0.030518	-0.012512	0.11581	0.22034	-0.001526	-0.009308
44.422	-0.011902	0.078125	-0.027466	0.005493	-0.018921	0.023041	-0.083923	0.000153	0.089264	0.034485	-0.003357	0.006561	0.055847	-0.015411	-0.0177	-0.050812	0.003967	0.024261	-0.091858	-0.11948	0.082703	-0.003052	-0.26047	-0.036163	0.4863	-0.0177	0.070038	-0.016022	-0.068207	-0.029602	-0.001984	-0.005493
44.423	-0.001831	0.045319	-0.031128	0.000458	0.06134	0.022888	-0.018463	0.007019	0.11704	0.050354	0.010834	0.001221	0.051422	-0.10284	-0.019989	-0.075226	0.007019	-0.093689	0.084534	-0.083466	0.075836	-0.12848	-0.20966	0.040436	0.49576	0.040436	0.086823	-0.018005	-0.16586	-0.37537	-0.000305	-0.008392
44.424	0.005035	0.050354	0.081787	-0.005341	0.092773	-0.001984	0.080872	0.00061	0.10986	0.023193	0.015564	0.004425	0.050812	-0.06073	-0.026703	-0.078583	0.031891	-0.045929	0.06958	-0.11887	0.022278	-0.11902	-0.11261	-0.046539	0.33981	0.039063	0.089722	-0.018311	-0.040283	-0.55924	0.001984	-0.007935
44.425	0.000458	0.014801	0.017853	-0.003967	0.05188	0.015564	0.073242	0.003815	0.022888	0.048981	0.013428	0.009308	0.033569	0.00351	-0.009766	-0.067902	0.020294	-0.052948	0.011139	-0.024567	0.000305	-0.10254	0.00412	-0.060577	0.15213	0.017548	0.053253	-0.022125	0.12741	-0.49316	0.002441	-0.000458
44.426	-0.017242	0.018616	-0.009003	0.000305	-0.032349	0.075531	0.051575	0.006104	-0.081329	0.041656	0.012054	0.006256	0.028992	0.041046	-0.005646	-0.063324	0.01358	-0.09079	-0.048676	-0.041046	0.025635	-0.064392	-0.061493	-0.1297	-0.086823	0.007629	0.019073	-0.017242	0.11307	-0.26871	-0.001526	-0.002899
44.427	-0.029449	0.033112	-0.019531	0.003357	-0.10941	0.077515	0.018463	0.001984	-0.079651	0.018311	0.003357	0.007629	0.027008	0.007629	0.000916	-0.074005	0.00351	-0.092773	-0.089569	0.077667	0.031891	-0.085602	-0.12466	-0.028534	-0.40298	0.012817	0.005188	-0.007629	0.18829	-0.11459	-0.000458	-0.006256
44.428	-0.036316	0.009918	-0.005646	0.00824	-0.20218	0.080109	0.009155	0.075684	-0.055237	-0.001526	0.001831	-0.005798	0.034332	-0.04303	-0.003357	-0.065765	-0.007935	-0.02655	0.001373	-0.001984	0.035858	-0.089264	-0.16388	-0.047302	-0.48935	0.013885	0.04303	-0.011292	0.15106	-0.094147	0	-0.002899
